<?xml version="1.0" encoding="UTF-8" standalone="no"?>
<!DOCTYPE svg PUBLIC "-//W3C//DTD SVG 1.1//EN" "http://www.w3.org/Graphics/SVG/1.1/DTD/svg11.dtd">
<!-- Généré par Microsoft Visio, SVG Export ia.svg Page-1 -->
<svg xmlns="http://www.w3.org/2000/svg" xmlns:xlink="http://www.w3.org/1999/xlink" xmlns:ev="http://www.w3.org/2001/xml-events"
		xmlns:v="http://schemas.microsoft.com/visio/2003/SVGExtensions/" width="11.6929in" height="8.26772in"
		viewBox="0 0 841.89 595.276" xml:space="preserve" color-interpolation-filters="sRGB" class="st11">
	<v:documentProperties v:langID="1036" v:metric="true" v:viewMarkup="false">
		<v:userDefs>
			<v:ud v:nameU="msvSubprocessMaster" v:prompt="" v:val="VT4(Rectangle)"/>
			<v:ud v:nameU="msvNoAutoConnect" v:val="VT0(1):26"/>
		</v:userDefs>
	</v:documentProperties>

	<style type="text/css">
	<![CDATA[
		.st1 {fill:#70ad47;stroke:#c7c8c8;stroke-width:0.25}
		.st2 {fill:#feffff;font-family:Calibri;font-size:1.5em}
		.st3 {font-size:1em}
		.st4 {fill:#5b9bd5;stroke:#c7c8c8;stroke-width:0.25}
		.st5 {fill:#feffff;font-family:Calibri;font-size:0.833336em}
		.st6 {marker-start:url(#mrkr13-14);stroke:#5b9bd5;stroke-linecap:round;stroke-linejoin:round;stroke-width:1}
		.st7 {fill:#5b9bd5;fill-opacity:1;stroke:#5b9bd5;stroke-opacity:1;stroke-width:0.28409090909091}
		.st8 {fill:#203864;stroke:#c7c8c8;stroke-width:0.25}
		.st9 {marker-end:url(#mrkr4-159);stroke:#5b9bd5;stroke-linecap:round;stroke-linejoin:round;stroke-width:1}
		.st10 {fill:#7030a0;stroke:#c7c8c8;stroke-width:0.25}
		.st11 {fill:none;fill-rule:evenodd;font-size:12px;overflow:visible;stroke-linecap:square;stroke-miterlimit:3}
	]]>
	</style>

	<defs id="Markers">
		<g id="lend13">
			<path d="M 3 1 L 0 0 L 3 -1 L 3 1 " style="stroke:none"/>
		</g>
		<marker id="mrkr13-14" class="st7" v:arrowType="13" v:arrowSize="2" v:setback="10.2" refX="10.2" orient="auto"
				markerUnits="strokeWidth" overflow="visible">
			<use xlink:href="#lend13" transform="scale(3.52) "/>
		</marker>
		<g id="lend4">
			<path d="M 2 1 L 0 0 L 2 -1 L 2 1 " style="stroke:none"/>
		</g>
		<marker id="mrkr4-159" class="st7" v:arrowType="4" v:arrowSize="2" v:setback="7.04" refX="-7.04" orient="auto"
				markerUnits="strokeWidth" overflow="visible">
			<use xlink:href="#lend4" transform="scale(-3.52,-3.52) "/>
		</marker>
	</defs>
	<g v:mID="0" v:index="1" v:groupContext="foregroundPage">
		<v:userDefs>
			<v:ud v:nameU="msvThemeOrder" v:val="VT0(0):26"/>
		</v:userDefs>
		<title>Page 1</title>
		<v:pageProperties v:drawingScale="0.0393701" v:pageScale="0.0393701" v:drawingUnits="24" v:shadowOffsetX="8.50394"
				v:shadowOffsetY="-8.50394"/>
		<v:layer v:name="Lien" v:index="0"/>
		<g id="shape1-1" v:mID="1" v:groupContext="shape" transform="translate(354.331,-316.274)">
			<title>Intelligence artificielle</title>
			<desc>Intelligence artificielle (IA)</desc>
			<v:userDefs>
				<v:ud v:nameU="visVersion" v:val="VT0(15):26"/>
			</v:userDefs>
			<v:textBlock v:margins="rect(4,4,4,4)" v:tabSpace="42.5197"/>
			<v:textRect cx="56.6929" cy="538.583" width="113.39" height="113.386"/>
			<path d="M80.18 481.89 L33.21 481.89 L0 515.1 L0 562.07 L33.21 595.28 L80.18 595.28 L113.39 562.07 L113.39 515.1 L80.18
						 481.89 Z" class="st1"/>
			<text x="14.28" y="522.38" class="st2" v:langID="3084"><v:paragraph v:horizAlign="1"/><v:tabList/>Intelligence <tspan
						x="20.39" dy="1.2em" class="st3">artificielle<v:newlineChar/></tspan><tspan x="43.76" dy="1.2em"
						class="st3">(</tspan>IA)</text>		</g>
		<g id="shape2-6" v:mID="2" v:groupContext="shape" transform="translate(170.75,-486.465)">
			<title>Robotique</title>
			<desc>Robotique</desc>
			<v:userDefs>
				<v:ud v:nameU="visVersion" v:val="VT0(15):26"/>
			</v:userDefs>
			<v:textBlock v:margins="rect(4,4,4,4)" v:tabSpace="42.5197"/>
			<v:textRect cx="80.7874" cy="574.961" width="141.38" height="35.5512"/>
			<path d="M0 574.96 A80.7874 20.315 0 0 1 161.57 574.96 A80.7874 20.315 0 1 1 0 574.96 Z" class="st4"/>
			<text x="59.61" y="577.96" class="st5" v:langID="3084"><v:paragraph v:horizAlign="1"/><v:tabList/>Robotique</text>		</g>
		<g id="shape3-9" v:mID="3" v:groupContext="shape" v:layerMember="0" transform="translate(332.325,-506.78)">
			<title>Lien dynamique</title>
			<path d="M5.94 603.57 L6.15 603.86 L55.22 672.4" class="st6"/>
		</g>
		<a xlink:href="https://www.gladir.com/CODER/IA/ml.htm">
			<g id="shape4-15" v:mID="4" v:groupContext="shape" transform="translate(490.095,-487.211)">
				<title>Machine à apprendre, apprentissage automatique, apprentissage machine, ML, Machine Learning,...</title>
				<desc>Apprentissage automatique (ML)</desc>
				<v:userDefs>
					<v:ud v:nameU="visVersion" v:val="VT0(15):26"/>
				</v:userDefs>
				<v:textBlock v:margins="rect(4,4,4,4)" v:tabSpace="42.5197"/>
				<v:textRect cx="80.7874" cy="574.961" width="141.38" height="35.5512"/>
				<path d="M0 574.96 A80.7874 20.315 0 0 1 161.57 574.96 A80.7874 20.315 0 1 1 0 574.96 Z" class="st4"/>
				<text x="24.4" y="571.96" class="st5" v:langID="3084"><v:paragraph v:horizAlign="1"/><v:tabList/>Apprentissage automatique<v:newlineChar/><tspan
							x="71.38" dy="1.2em" class="st3">(</tspan>ML)</text>			</g>
		</a>
		<a xlink:href="https://www.gladir.com/CODER/IA/traitement-de-langage-naturel.htm">
			<g id="shape5-19" v:mID="5" v:groupContext="shape" transform="translate(493.079,-407.853)">
				<title>Traitement de langage naturel (TLN ou NLP)</title>
				<desc>NLP (Traitement de langage naturel)</desc>
				<v:userDefs>
					<v:ud v:nameU="visVersion" v:val="VT0(15):26"/>
				</v:userDefs>
				<v:textBlock v:margins="rect(4,4,4,4)" v:tabSpace="42.5197"/>
				<v:textRect cx="80.7874" cy="574.961" width="141.38" height="35.5512"/>
				<path d="M0 574.96 A80.7874 20.315 0 0 1 161.57 574.96 A80.7874 20.315 0 1 1 0 574.96 Z" class="st4"/>
				<text x="72.87" y="571.96" class="st5" v:langID="3084"><v:paragraph v:horizAlign="1"/><v:tabList/>NLP<v:newlineChar/><tspan
							x="16.12" dy="1.2em" class="st3">(</tspan>Traitement de langage naturel)</text>			</g>
		</a>
		<a xlink:href="https://www.gladir.com/CODER/IA/systeme-expert.htm">
			<g id="shape6-23" v:mID="6" v:groupContext="shape" transform="translate(170.079,-281.786)">
				<title>Système expert</title>
				<desc>Système expert</desc>
				<v:userDefs>
					<v:ud v:nameU="visVersion" v:val="VT0(15):26"/>
				</v:userDefs>
				<v:textBlock v:margins="rect(4,4,4,4)" v:tabSpace="42.5197"/>
				<v:textRect cx="80.7874" cy="574.961" width="141.38" height="35.5512"/>
				<path d="M0 574.96 A80.7874 20.315 0 0 1 161.57 574.96 A80.7874 20.315 0 1 1 0 574.96 Z" class="st4"/>
				<text x="49.31" y="577.96" class="st5" v:langID="3084"><v:paragraph v:horizAlign="1"/><v:tabList/>Système expert</text>			</g>
		</a>
		<a xlink:href="https://www.gladir.com/CODER/IA/automatisation-des-processus-robotises-rpa.htm">
			<g id="shape7-26" v:mID="7" v:groupContext="shape" transform="translate(46.7717,-466.038)">
				<title>Automatisation des processus robotisés (RPA)</title>
				<desc>RPA</desc>
				<v:userDefs>
					<v:ud v:nameU="visVersion" v:val="VT0(15):26"/>
				</v:userDefs>
				<v:textBlock v:margins="rect(4,4,4,4)" v:tabSpace="42.5197"/>
				<v:textRect cx="38.2677" cy="585.118" width="76.54" height="20.315"/>
				<rect x="0" y="574.961" width="76.5354" height="20.315" class="st8"/>
				<text x="30.08" y="588.12" class="st5" v:langID="3084"><v:paragraph v:horizAlign="1"/><v:tabList/>RPA</text>			</g>
		</a>
		<g id="shape8-29" v:mID="8" v:groupContext="shape" v:layerMember="0" transform="translate(123.307,-476.196)">
			<title>Lien dynamique.8</title>
			<path d="M8.57 589.75 L8.88 589.55 L47.44 564.69" class="st6"/>
		</g>
		<a xlink:href="https://www.gladir.com/CODER/IA/cv.htm">
			<g id="shape9-34" v:mID="9" v:groupContext="shape" transform="translate(242.362,-166.337)">
				<title>Vision par ordinateur, Computer Vision, CV</title>
				<desc>Vision (CV)</desc>
				<v:userDefs>
					<v:ud v:nameU="visVersion" v:val="VT0(15):26"/>
				</v:userDefs>
				<v:textBlock v:margins="rect(4,4,4,4)" v:tabSpace="42.5197"/>
				<v:textRect cx="80.7874" cy="574.961" width="141.38" height="35.5512"/>
				<path d="M0 574.96 A80.7874 20.315 0 0 1 161.57 574.96 A80.7874 20.315 0 1 1 0 574.96 Z" class="st4"/>
				<text x="68.44" y="571.96" class="st5" v:langID="3084"><v:paragraph v:horizAlign="1"/><v:tabList/>Vision<v:newlineChar/><tspan
							x="72.25" dy="1.2em" class="st3">(</tspan>CV)</text>			</g>
		</a>
		<g id="shape10-38" v:mID="10" v:groupContext="shape" transform="translate(415.276,-168.226)">
			<title>Parler</title>
			<desc>Parler</desc>
			<v:userDefs>
				<v:ud v:nameU="visVersion" v:val="VT0(15):26"/>
			</v:userDefs>
			<v:textBlock v:margins="rect(4,4,4,4)" v:tabSpace="42.5197"/>
			<v:textRect cx="80.7874" cy="574.961" width="141.38" height="35.5512"/>
			<path d="M0 574.96 A80.7874 20.315 0 0 1 161.57 574.96 A80.7874 20.315 0 1 1 0 574.96 Z" class="st4"/>
			<text x="68.69" y="577.96" class="st5" v:langID="3084"><v:paragraph v:horizAlign="1"/><v:tabList/>Parler</text>		</g>
		<g id="shape11-41" v:mID="11" v:groupContext="shape" transform="translate(172.317,-403.203)">
			<title>Planification / optimisation</title>
			<desc>Planification / optimisation</desc>
			<v:userDefs>
				<v:ud v:nameU="visVersion" v:val="VT0(15):26"/>
			</v:userDefs>
			<v:textBlock v:margins="rect(4,4,4,4)" v:tabSpace="42.5197"/>
			<v:textRect cx="80.7874" cy="574.961" width="141.38" height="35.5512"/>
			<path d="M0 574.96 A80.7874 20.315 0 0 1 161.57 574.96 A80.7874 20.315 0 1 1 0 574.96 Z" class="st4"/>
			<text x="25.76" y="577.96" class="st5" v:langID="3084"><v:paragraph v:horizAlign="1"/><v:tabList/>Planification / optimisation</text>		</g>
		<g id="shape12-44" v:mID="12" v:groupContext="shape" v:layerMember="0" transform="translate(123.307,-476.196)">
			<title>Lien dynamique.12</title>
			<path d="M6.95 602.74 L7.19 603.01 L49.01 647.95" class="st6"/>
		</g>
		<g id="shape14-49" v:mID="14" v:groupContext="shape" v:layerMember="0" transform="translate(333.891,-423.518)">
			<title>Lien dynamique.14</title>
			<path d="M6.15 603.42 L6.36 603.7 L20.44 622.34" class="st6"/>
		</g>
		<g id="shape15-54" v:mID="15" v:groupContext="shape" v:layerMember="0" transform="translate(331.654,-302.101)">
			<title>Lien dynamique.15</title>
			<path d="M4.4 586.08 L4.56 585.75 L22.68 547.89" class="st6"/>
		</g>
		<g id="shape16-59" v:mID="16" v:groupContext="shape" v:layerMember="0" transform="translate(323.15,-206.966)">
			<title>Lien dynamique.16</title>
			<path d="M5.18 586.49 L5.36 586.18 L64.39 485.97" class="st6"/>
		</g>
		<g id="shape17-64" v:mID="17" v:groupContext="shape" v:layerMember="0" transform="translate(496.063,-208.856)">
			<title>Lien dynamique.17</title>
			<path d="M-5.07 586.43 L-5.25 586.11 L-61.56 487.86" class="st6"/>
		</g>
		<g id="shape19-69" v:mID="19" v:groupContext="shape" v:layerMember="0" transform="translate(490.095,-507.526)">
			<title>Lien dynamique.19</title>
			<path d="M-5.93 603.58 L-6.14 603.87 L-55.59 673.14" class="st6"/>
		</g>
		<g id="shape20-74" v:mID="20" v:groupContext="shape" v:layerMember="0" transform="translate(493.079,-428.168)">
			<title>Lien dynamique.20</title>
			<path d="M-6.37 603.24 L-6.59 603.52 L-25.36 626.99" class="st6"/>
		</g>
		<a xlink:href="https://www.gladir.com/CODER/IA/deep-learning.htm">
			<g id="shape21-79" v:mID="21" v:groupContext="shape" transform="translate(680.315,-517.049)">
				<title>Apprentissage profond</title>
				<desc>Apprentissage profond</desc>
				<v:userDefs>
					<v:ud v:nameU="visVersion" v:val="VT0(15):26"/>
				</v:userDefs>
				<v:textBlock v:margins="rect(4,4,4,4)" v:tabSpace="42.5197"/>
				<v:textRect cx="63.7795" cy="585.118" width="127.56" height="20.315"/>
				<rect x="0" y="574.961" width="127.559" height="20.315" class="st8"/>
				<text x="17.25" y="588.12" class="st5" v:langID="3084"><v:paragraph v:horizAlign="1"/><v:tabList/>Apprentissage profond</text>			</g>
		</a>
		<g id="shape22-82" v:mID="22" v:groupContext="shape" transform="translate(678.898,-482.449)">
			<title>Analyse prédictive</title>
			<desc>Analyse prédictive</desc>
			<v:userDefs>
				<v:ud v:nameU="visVersion" v:val="VT0(15):26"/>
			</v:userDefs>
			<v:textBlock v:margins="rect(4,4,4,4)" v:tabSpace="42.5197"/>
			<v:textRect cx="63.652" cy="585.118" width="127.31" height="20.315"/>
			<rect x="0" y="574.961" width="127.304" height="20.315" class="st8"/>
			<text x="26.44" y="588.12" class="st5" v:langID="3084"><v:paragraph v:horizAlign="1"/><v:tabList/>Analyse prédictive</text>		</g>
		<g id="shape23-85" v:mID="23" v:groupContext="shape" v:layerMember="0" transform="translate(680.315,-527.207)">
			<title>Lien dynamique.23</title>
			<path d="M-8.41 601.05 L-8.7 601.26 L-28.64 614.96" class="st6"/>
		</g>
		<g id="shape24-90" v:mID="24" v:groupContext="shape" v:layerMember="0" transform="translate(678.898,-492.607)">
			<title>Lien dynamique.24</title>
			<path d="M-8.95 590.37 L-9.26 590.2 L-27.23 580.36" class="st6"/>
		</g>
		<g id="shape25-95" v:mID="25" v:groupContext="shape" transform="translate(602.362,-179.018)">
			<title>Texte à parler</title>
			<desc>Texte à parler</desc>
			<v:userDefs>
				<v:ud v:nameU="visVersion" v:val="VT0(15):26"/>
			</v:userDefs>
			<v:textBlock v:margins="rect(4,4,4,4)" v:tabSpace="42.5197"/>
			<v:textRect cx="63.7795" cy="585.118" width="127.56" height="20.315"/>
			<rect x="0" y="574.961" width="127.559" height="20.315" class="st8"/>
			<text x="35.73" y="588.12" class="st5" v:langID="3084"><v:paragraph v:horizAlign="1"/><v:tabList/>Texte à parler</text>		</g>
		<g id="shape26-98" v:mID="26" v:groupContext="shape" transform="translate(601.271,-150.671)">
			<title>Parler à texte</title>
			<desc>Parler à texte</desc>
			<v:userDefs>
				<v:ud v:nameU="visVersion" v:val="VT0(15):26"/>
			</v:userDefs>
			<v:textBlock v:margins="rect(4,4,4,4)" v:tabSpace="42.5197"/>
			<v:textRect cx="63.7795" cy="585.118" width="127.56" height="20.315"/>
			<rect x="0" y="574.961" width="127.559" height="20.315" class="st8"/>
			<text x="36.53" y="588.12" class="st5" v:langID="3084"><v:paragraph v:horizAlign="1"/><v:tabList/>Parler à texte</text>		</g>
		<g id="shape27-101" v:mID="27" v:groupContext="shape" v:layerMember="0" transform="translate(602.362,-195.945)">
			<title>Lien dynamique.27</title>
			<path d="M-10.2 602.3 L-10.56 602.31 L-25.51 602.68" class="st6"/>
		</g>
		<g id="shape28-106" v:mID="28" v:groupContext="shape" v:layerMember="0" transform="translate(601.271,-160.829)">
			<title>Lien dynamique.28</title>
			<path d="M-6.74 587.62 L-6.98 587.35 L-24.42 567.56" class="st6"/>
		</g>
		<g id="shape29-111" v:mID="29" v:groupContext="shape" transform="translate(85.0394,-206.022)">
			<title>Reconnaissance faciale</title>
			<desc>Reconnaissance faciale</desc>
			<v:userDefs>
				<v:ud v:nameU="visVersion" v:val="VT0(15):26"/>
			</v:userDefs>
			<v:textBlock v:margins="rect(4,4,4,4)" v:tabSpace="42.5197"/>
			<v:textRect cx="63.7795" cy="585.118" width="127.56" height="20.315"/>
			<rect x="0" y="574.961" width="127.559" height="20.315" class="st8"/>
			<text x="17.15" y="588.12" class="st5" v:langID="3084"><v:paragraph v:horizAlign="1"/><v:tabList/>Reconnaissance faciale</text>		</g>
		<g id="shape30-114" v:mID="30" v:groupContext="shape" transform="translate(85.0394,-176.494)">
			<title>Reconnaissance d’image</title>
			<desc>Reconnaissance d’image</desc>
			<v:userDefs>
				<v:ud v:nameU="visVersion" v:val="VT0(15):26"/>
			</v:userDefs>
			<v:textBlock v:margins="rect(4,4,4,4)" v:tabSpace="42.5197"/>
			<v:textRect cx="63.7795" cy="585.118" width="127.56" height="20.315"/>
			<rect x="0" y="574.961" width="127.559" height="20.315" class="st8"/>
			<text x="14.11" y="588.12" class="st5" v:langID="3084"><v:paragraph v:horizAlign="1"/><v:tabList/>Reconnaissance d’image</text>		</g>
		<g id="shape31-117" v:mID="31" v:groupContext="shape" transform="translate(85.0394,-146.966)">
			<title>Vision par machine</title>
			<desc>Vision par machine</desc>
			<v:userDefs>
				<v:ud v:nameU="visVersion" v:val="VT0(15):26"/>
			</v:userDefs>
			<v:textBlock v:margins="rect(4,4,4,4)" v:tabSpace="42.5197"/>
			<v:textRect cx="63.7795" cy="585.118" width="127.56" height="20.315"/>
			<rect x="0" y="574.961" width="127.559" height="20.315" class="st8"/>
			<text x="25.01" y="588.12" class="st5" v:langID="3084"><v:paragraph v:horizAlign="1"/><v:tabList/>Vision par machine</text>		</g>
		<g id="shape32-120" v:mID="32" v:groupContext="shape" v:layerMember="0" transform="translate(212.598,-216.179)">
			<title>Lien dynamique.32</title>
			<path d="M7.24 602.46 L7.5 602.71 L29.76 624.8" class="st6"/>
		</g>
		<g id="shape33-125" v:mID="33" v:groupContext="shape" v:layerMember="0" transform="translate(212.598,-157.124)">
			<title>Lien dynamique.33</title>
			<path d="M7.24 588.09 L7.5 587.84 L29.76 565.75" class="st6"/>
		</g>
		<g id="shape34-130" v:mID="34" v:groupContext="shape" v:layerMember="0" transform="translate(212.598,-179.565)">
			<title>Lien dynamique.34</title>
			<path d="M10.2 588.19 L10.56 588.19 L29.76 588.19" class="st6"/>
		</g>
		<g id="shape35-135" v:mID="35" v:groupContext="shape" transform="translate(677.704,-443.833)">
			<title>Traduction</title>
			<desc>Traduction</desc>
			<v:userDefs>
				<v:ud v:nameU="visVersion" v:val="VT0(15):26"/>
			</v:userDefs>
			<v:textBlock v:margins="rect(4,4,4,4)" v:tabSpace="42.5197"/>
			<v:textRect cx="63.7795" cy="585.118" width="127.56" height="20.315"/>
			<rect x="0" y="574.961" width="127.559" height="20.315" class="st8"/>
			<text x="41.75" y="588.12" class="st5" v:langID="3084"><v:paragraph v:horizAlign="1"/><v:tabList/>Traduction</text>		</g>
		<g id="shape36-138" v:mID="36" v:groupContext="shape" transform="translate(676.212,-416.979)">
			<title>Extraction de l’information</title>
			<desc>Extraction de l’information</desc>
			<v:userDefs>
				<v:ud v:nameU="visVersion" v:val="VT0(15):26"/>
			</v:userDefs>
			<v:textBlock v:margins="rect(4,4,4,4)" v:tabSpace="42.5197"/>
			<v:textRect cx="63.7795" cy="585.118" width="127.56" height="20.315"/>
			<rect x="0" y="574.961" width="127.559" height="20.315" class="st8"/>
			<text x="9.23" y="588.12" class="st5" v:langID="3084"><v:paragraph v:horizAlign="1"/><v:tabList/>Extraction de l’information</text>		</g>
		<g id="shape37-141" v:mID="37" v:groupContext="shape" v:layerMember="0" transform="translate(677.704,-453.991)">
			<title>Lien dynamique.37</title>
			<path d="M-6.79 602.88 L-7.03 603.15 L-23.05 621.1" class="st6"/>
		</g>
		<g id="shape38-146" v:mID="38" v:groupContext="shape" v:layerMember="0" transform="translate(676.212,-420.566)">
			<title>Lien dynamique.38</title>
			<path d="M-10.19 588.22 L-10.55 588.2 L-21.56 587.67" class="st6"/>
		</g>
		<g id="shape39-151" v:mID="39" v:groupContext="shape" transform="translate(602.735,-210.92)">
			<title>Reconnaissance vocale</title>
			<desc>Reconnaissance vocale</desc>
			<v:userDefs>
				<v:ud v:nameU="visVersion" v:val="VT0(15):26"/>
			</v:userDefs>
			<v:textBlock v:margins="rect(4,4,4,4)" v:tabSpace="42.5197"/>
			<v:textRect cx="63.7795" cy="585.118" width="127.56" height="20.315"/>
			<rect x="0" y="574.961" width="127.559" height="20.315" class="st8"/>
			<text x="17.32" y="588.12" class="st5" v:langID="3084"><v:paragraph v:horizAlign="1"/><v:tabList/>Reconnaissance vocale</text>		</g>
		<g id="shape40-154" v:mID="40" v:groupContext="shape" v:layerMember="0" transform="translate(576.85,-188.541)">
			<title>Lien dynamique.40</title>
			<path d="M0 595.28 L21.5 568.25" class="st9"/>
		</g>
		<g id="shape41-160" v:mID="41" v:groupContext="shape" transform="translate(677.331,-259.581)">
			<title>Intelligence sociale</title>
			<desc>Intelligence sociale</desc>
			<v:userDefs>
				<v:ud v:nameU="visVersion" v:val="VT0(15):26"/>
			</v:userDefs>
			<v:textBlock v:margins="rect(4,4,4,4)" v:tabSpace="42.5197"/>
			<v:textRect cx="63.652" cy="585.118" width="127.31" height="20.315"/>
			<rect x="0" y="574.961" width="127.304" height="20.315" class="st8"/>
			<text x="25.07" y="588.12" class="st5" v:langID="3084"><v:paragraph v:horizAlign="1"/><v:tabList/>Intelligence sociale</text>		</g>
		<g id="shape42-163" v:mID="42" v:groupContext="shape" v:layerMember="0" transform="translate(650.7,-294.828)">
			<title>Lien dynamique.42</title>
			<path d="M0 595.28 L21.51 615.54" class="st9"/>
		</g>
		<g id="shape43-168" v:mID="43" v:groupContext="shape" transform="translate(677.331,-387.14)">
			<title>Classification</title>
			<desc>Classification</desc>
			<v:userDefs>
				<v:ud v:nameU="visVersion" v:val="VT0(15):26"/>
			</v:userDefs>
			<v:textBlock v:margins="rect(4,4,4,4)" v:tabSpace="42.5197"/>
			<v:textRect cx="63.7795" cy="585.118" width="127.56" height="20.315"/>
			<rect x="0" y="574.961" width="127.559" height="20.315" class="st8"/>
			<text x="37.24" y="588.12" class="st5" v:langID="3084"><v:paragraph v:horizAlign="1"/><v:tabList/>Classification</text>		</g>
		<g id="shape46-171" v:mID="46" v:groupContext="shape" v:layerMember="0" transform="translate(654.654,-428.168)">
			<title>Lien dynamique.46</title>
			<path d="M0 595.28 L18.51 620.47" class="st9"/>
		</g>
		<g id="shape47-176" v:mID="47" v:groupContext="shape" transform="translate(489.126,-274.513)">
			<title>Intelligence Web</title>
			<desc>Intelligence Web</desc>
			<v:userDefs>
				<v:ud v:nameU="visVersion" v:val="VT0(15):26"/>
			</v:userDefs>
			<v:textBlock v:margins="rect(4,4,4,4)" v:tabSpace="42.5197"/>
			<v:textRect cx="80.7874" cy="574.961" width="141.38" height="35.5512"/>
			<path d="M0 574.96 A80.7874 20.315 0 0 1 161.57 574.96 A80.7874 20.315 0 1 1 0 574.96 Z" class="st4"/>
			<text x="46.53" y="577.96" class="st5" v:langID="3084"><v:paragraph v:horizAlign="1"/><v:tabList/>Intelligence Web</text>		</g>
		<g id="shape48-179" v:mID="48" v:groupContext="shape" v:layerMember="0" transform="translate(467.717,-349.484)">
			<title>Lien dynamique.48</title>
			<path d="M0 595.28 L18.84 643.38" class="st9"/>
		</g>
		<g id="shape49-184" v:mID="49" v:groupContext="shape" transform="translate(676.212,-311.525)">
			<title>Agents Web</title>
			<desc>Agents Web</desc>
			<v:userDefs>
				<v:ud v:nameU="visVersion" v:val="VT0(15):26"/>
			</v:userDefs>
			<v:textBlock v:margins="rect(4,4,4,4)" v:tabSpace="42.5197"/>
			<v:textRect cx="63.7795" cy="585.118" width="127.56" height="20.315"/>
			<rect x="0" y="574.961" width="127.559" height="20.315" class="st8"/>
			<text x="39.09" y="588.12" class="st5" v:langID="3084"><v:paragraph v:horizAlign="1"/><v:tabList/>Agents Web</text>		</g>
		<g id="shape50-187" v:mID="50" v:groupContext="shape" v:layerMember="0" transform="translate(650.7,-294.828)">
			<title>Lien dynamique.50</title>
			<path d="M0 595.28 L20.66 573.53" class="st9"/>
		</g>
		<g id="shape51-192" v:mID="51" v:groupContext="shape" transform="translate(676.212,-284.956)">
			<title>Personnalisation Web</title>
			<desc>Personnalisation Web</desc>
			<v:userDefs>
				<v:ud v:nameU="visVersion" v:val="VT0(15):26"/>
			</v:userDefs>
			<v:textBlock v:margins="rect(4,4,4,4)" v:tabSpace="42.5197"/>
			<v:textRect cx="63.7795" cy="585.118" width="127.56" height="20.315"/>
			<rect x="0" y="574.961" width="127.559" height="20.315" class="st8"/>
			<text x="19.3" y="588.12" class="st5" v:langID="3084"><v:paragraph v:horizAlign="1"/><v:tabList/>Personnalisation Web</text>		</g>
		<g id="shape52-195" v:mID="52" v:groupContext="shape" v:layerMember="0" transform="translate(650.7,-287.884)">
			<title>Lien dynamique.52</title>
			<path d="M0 588.33 L18.47 588.12" class="st9"/>
		</g>
		<g id="shape53-200" v:mID="53" v:groupContext="shape" transform="translate(677.832,-341.998)">
			<title>GuideBOT</title>
			<desc>GuideBOT</desc>
			<v:userDefs>
				<v:ud v:nameU="visVersion" v:val="VT0(15):26"/>
			</v:userDefs>
			<v:textBlock v:margins="rect(4,4,4,4)" v:tabSpace="42.5197"/>
			<v:textRect cx="63.652" cy="585.118" width="127.31" height="20.315"/>
			<rect x="0" y="574.961" width="127.304" height="20.315" class="st10"/>
			<text x="43.14" y="588.12" class="st5" v:langID="3084"><v:paragraph v:horizAlign="1"/><v:tabList/>GuideBOT</text>		</g>
		<g id="shape54-203" v:mID="54" v:groupContext="shape" v:layerMember="0" transform="translate(569.913,-315.143)">
			<title>Lien dynamique.54</title>
			<path d="M0 595.28 L101.26 560.55" class="st9"/>
		</g>
		<a xlink:href="https://www.gladir.com/CODER/IA/agent-conversationnel-chatbot.htm">
			<g id="shape55-208" v:mID="55" v:groupContext="shape" transform="translate(509.245,-334.824)">
				<title>Agent conversationnel</title>
				<desc>Agent conversationnel (Chatbots)</desc>
				<v:userDefs>
					<v:ud v:nameU="visVersion" v:val="VT0(15):26"/>
				</v:userDefs>
				<v:textBlock v:margins="rect(4,4,4,4)" v:tabSpace="42.5197"/>
				<v:textRect cx="63.652" cy="578.864" width="127.31" height="32.8222"/>
				<rect x="0" y="562.453" width="127.304" height="32.8222" class="st10"/>
				<text x="17.92" y="575.86" class="st5" v:langID="3084"><v:paragraph v:horizAlign="1"/><v:tabList/>Agent conversationnel <tspan
							x="42.36" dy="1.2em" class="st3">(</tspan>Chatbots)</text>			</g>
		</a>
		<g id="shape56-212" v:mID="56" v:groupContext="shape" v:layerMember="0" transform="translate(563.64,-315.143)">
			<title>Lien dynamique.56</title>
			<path d="M6.27 595.28 L7.32 582.61" class="st9"/>
		</g>
		<g id="shape57-217" v:mID="57" v:groupContext="shape" v:layerMember="0" transform="translate(580.468,-407.853)">
			<title>Lien dynamique.57</title>
			<path d="M-6.6 595.28 L-7.4 628.44" class="st9"/>
		</g>
		<g id="shape58-222" v:mID="58" v:groupContext="shape" transform="translate(507.753,-541.38)">
			<title>Voitures autonomes, voiture sans conducteur (Google Car, Apple Car, Tesla autopilot,...)</title>
			<desc>Véhicule autonome</desc>
			<v:userDefs>
				<v:ud v:nameU="visVersion" v:val="VT0(15):26"/>
			</v:userDefs>
			<v:textBlock v:margins="rect(4,4,4,4)" v:tabSpace="42.5197"/>
			<v:textRect cx="63.652" cy="585.118" width="127.31" height="20.315"/>
			<rect x="0" y="574.961" width="127.304" height="20.315" class="st10"/>
			<text x="23.97" y="588.12" class="st5" v:langID="3084"><v:paragraph v:horizAlign="1"/><v:tabList/>Véhicule autonome</text>		</g>
		<g id="shape59-225" v:mID="59" v:groupContext="shape" v:layerMember="0" transform="translate(564.057,-527.524)">
			<title>Lien dynamique.59</title>
			<path d="M6.83 594.96 L7.08 588.45" class="st9"/>
		</g>
	</g>
</svg>
